<svg version="1.1" id="Layer_1" xmlns="http://www.w3.org/2000/svg" xmlns:xlink="http://www.w3.org/1999/xlink" x="0px" y="0px"
	 width="100%" viewBox="0 0 1024 1024" enable-background="new 0 0 1024 1024" xml:space="preserve">
<path fill="#000000" opacity="1.000000" stroke="none" 
	d="
M845.082642,560.000000 
	C845.083679,550.032837 845.083679,540.565735 845.083679,531.454468 
	C843.401489,529.945251 841.832092,530.314880 840.379211,530.313416 
	C821.549072,530.294495 802.717651,530.431519 783.889771,530.229492 
	C779.444031,530.181824 778.191956,531.645203 778.255066,535.985046 
	C778.482788,551.645752 778.240479,567.312988 778.420593,582.974915 
	C778.467468,587.048645 777.225464,588.711609 773.022705,588.441101 
	C768.542053,588.152649 764.011475,588.133240 759.533936,588.445496 
	C755.084167,588.755859 753.728149,586.951599 753.763794,582.671143 
	C753.915283,564.508850 753.825256,546.344543 753.821411,528.180969 
	C753.816345,504.185059 753.928406,480.188019 753.705017,456.194122 
	C753.659058,451.254150 754.959656,449.136383 760.150757,449.623444 
	C764.280212,450.010895 768.491943,449.931061 772.636719,449.633789 
	C776.927368,449.326080 778.491760,450.730225 778.421082,455.232666 
	C778.183105,470.392853 778.484741,485.561310 778.270630,500.722229 
	C778.208557,505.117523 779.210876,506.899445 784.044434,506.831879 
	C802.704285,506.571045 821.371277,506.609558 840.032593,506.813477 
	C844.495850,506.862244 845.732056,505.315857 845.671448,501.010010 
	C845.457825,485.848999 845.744934,470.680725 845.505493,455.520477 
	C845.432800,450.920685 846.906860,449.282013 851.484741,449.614136 
	C856.126282,449.950867 860.816528,449.828308 865.475220,449.644958 
	C868.992493,449.506531 870.260376,451.076202 870.175842,454.398132 
	C870.078430,458.227966 870.178833,462.062683 870.178772,465.895264 
	C870.177490,512.387390 870.177368,558.879456 870.156433,605.371582 
	C870.155579,607.301147 870.517456,609.312256 869.647278,611.034363 
	C867.675232,611.605225 866.972229,610.253357 866.096985,609.347656 
	C860.307678,603.357117 854.643250,597.241943 848.732300,591.374817 
	C846.167786,588.829163 845.027344,586.060974 845.081970,582.495789 
	C845.194397,575.165588 845.094238,567.832092 845.082642,560.000000 
z"/>
<path fill="#000000" opacity="1.000000" stroke="none" 
	d="
M627.993774,481.985046 
	C604.302979,503.381012 607.398315,554.479187 646.853882,565.839600 
	C664.144836,570.818176 679.465881,566.322998 692.529602,554.253174 
	C695.105957,551.872803 696.628174,551.740112 699.047791,554.141663 
	C702.591431,557.658875 706.293884,561.046692 710.178955,564.179260 
	C713.031494,566.479248 712.820923,568.167114 710.316162,570.554504 
	C699.255066,581.097351 686.286377,587.864563 671.178772,590.130249 
	C633.133057,595.835999 597.652527,574.356689 589.331055,535.451294 
	C581.190857,497.393341 600.976746,458.533203 640.816956,449.514313 
	C665.404358,443.948334 688.508240,447.676880 708.209290,464.880676 
	C709.570374,466.069214 711.134033,467.124420 712.021729,469.746246 
	C707.130249,474.601074 702.012390,479.737762 696.823608,484.801697 
	C694.801025,486.775604 693.524719,484.841797 692.265503,483.632996 
	C679.263733,471.151886 663.684875,468.870453 646.778931,472.316589 
	C639.806580,473.737885 633.707947,477.181061 627.993774,481.985046 
z"/>
<path fill="#000000" opacity="1.000000" stroke="none" 
	d="
M515.355469,510.000122 
	C515.351135,534.653748 515.236511,558.808228 515.438599,582.960144 
	C515.477173,587.563416 514.040833,589.303284 509.486481,589.012146 
	C505.505432,588.757629 501.494354,588.976746 497.496521,588.979980 
	C490.842377,588.985352 490.745728,588.885681 490.746307,582.353577 
	C490.749329,548.371948 490.754883,514.390381 490.749908,480.408752 
	C490.748840,473.117096 490.730530,473.110413 483.284210,473.109467 
	C472.956451,473.108154 462.626129,472.985870 452.302246,473.188202 
	C448.170959,473.269104 446.572144,471.760162 446.782654,467.650085 
	C447.012512,463.164185 446.915985,458.655975 446.816864,454.160706 
	C446.748566,451.065582 447.882233,449.649689 451.181122,449.655334 
	C485.995544,449.715240 520.810120,449.708740 555.624451,449.634277 
	C558.648682,449.627808 559.894226,450.862366 559.889709,453.729919 
	C559.882568,458.227325 559.722351,462.733582 559.951294,467.219543 
	C560.168152,471.468353 558.605530,473.202179 554.205688,473.129333 
	C543.215088,472.947388 532.214783,473.291534 521.226746,473.047882 
	C516.668396,472.946777 515.105347,474.360657 515.252319,479.019379 
	C515.572510,489.170593 515.353821,499.338806 515.355469,510.000122 
z"/>
<path fill="#000000" opacity="1.000000" stroke="none" 
	d="
M160.562408,526.071472 
	C160.446777,521.921448 160.359619,518.258789 160.207382,514.598755 
	C160.073898,511.389099 161.151840,509.714844 164.773697,509.725616 
	C193.936035,509.812286 223.098831,509.799896 252.261261,509.724731 
	C255.516953,509.716370 256.726990,510.849762 256.492828,514.145630 
	C256.221832,517.960327 256.381134,521.806458 256.374084,525.638916 
	C256.360199,533.166443 256.366058,533.177856 248.583160,533.183167 
	C229.752441,533.196106 210.921722,533.189880 192.091003,533.207214 
	C185.118744,533.213623 185.114014,533.233948 185.115112,540.053284 
	C185.117401,554.217957 184.984726,568.384949 185.211105,582.546082 
	C185.284988,587.167786 183.683807,588.776733 179.111343,588.462341 
	C174.135147,588.120178 169.116653,588.301270 164.119247,588.395691 
	C161.344437,588.447998 160.423157,587.431274 160.444656,584.549805 
	C160.588852,565.220581 160.545303,545.890076 160.562408,526.071472 
z"/>
<path fill="#000000" opacity="1.000000" stroke="none" 
	d="
M366.000000,588.936401 
	C349.008484,588.942139 332.515442,588.827026 316.026367,589.030151 
	C311.407013,589.087036 309.452789,587.849060 309.578888,582.848511 
	C309.885345,570.695679 309.634430,558.529785 309.706146,546.369751 
	C309.752747,538.465576 310.941589,537.572693 318.498993,538.940430 
	C321.440338,539.472717 324.434357,539.709167 327.399384,540.116577 
	C332.062653,540.757263 334.545013,543.194824 334.300690,548.160645 
	C334.128967,551.650024 334.532074,555.177795 334.223083,558.647888 
	C333.802643,563.369751 335.439880,565.080200 340.356506,564.968079 
	C358.507233,564.554077 376.640167,564.961731 394.742676,566.738342 
	C400.007446,567.255066 404.790100,568.629883 409.549713,570.753479 
	C412.924774,572.259338 414.151672,574.516235 414.240540,578.116760 
	C414.506073,588.872620 414.612854,588.884705 403.980621,588.906067 
	C391.487122,588.931091 378.993530,588.927246 366.000000,588.936401 
z"/>
<path fill="#000000" opacity="1.000000" stroke="none" 
	d="
M142.191727,449.699219 
	C187.753250,449.699127 232.840546,449.699127 278.462982,449.699127 
	C276.839172,454.774445 272.761749,457.052734 270.586609,460.632233 
	C264.327301,470.932831 255.682434,474.017151 243.525925,473.565002 
	C216.067825,472.543701 188.544556,473.200806 161.048752,473.350555 
	C157.205582,473.371490 154.443039,472.242828 151.925232,469.364624 
	C147.539963,464.351501 142.817139,459.634796 138.287369,454.746094 
	C137.201096,453.573730 135.625198,452.663574 135.614716,450.403778 
	C137.468216,449.176483 139.671005,449.895081 142.191727,449.699219 
z"/>
<path fill="#000000" opacity="1.000000" stroke="none" 
	d="
M309.638123,460.030579 
	C309.843811,448.306763 307.930725,448.958252 320.015717,449.002838 
	C334.149750,449.054993 348.284973,448.298920 362.420410,449.813782 
	C373.818848,451.035339 384.114471,456.080780 395.168579,458.438171 
	C397.472839,458.929596 400.027863,460.673279 399.281342,463.812805 
	C398.462799,467.255066 395.477814,467.292725 392.804993,466.741119 
	C389.035828,465.963318 385.318878,466.263458 382.058990,467.891785 
	C371.646027,473.093079 360.469604,472.696838 349.353394,472.963287 
	C347.190216,473.015167 345.006042,473.190796 342.865021,472.975922 
	C337.145508,472.401794 332.664520,473.363800 331.504974,480.160889 
	C331.128754,482.366425 328.798798,483.372803 327.040833,484.652527 
	C321.753571,488.501526 315.692261,491.415833 311.403992,497.190643 
	C308.492737,485.027008 310.227539,472.706268 309.638123,460.030579 
z"/>
<path fill="#000000" opacity="1.000000" stroke="none" 
	d="
M398.887085,506.728851 
	C403.841553,506.126373 405.790039,507.852448 405.389648,512.553894 
	C405.052094,516.517578 405.145050,520.542175 405.366119,524.522034 
	C405.570679,528.204773 404.154510,529.464417 400.472504,529.427856 
	C385.835693,529.282227 371.196106,529.307190 356.558350,529.400635 
	C342.605896,529.489746 328.653351,529.685425 314.703400,529.963867 
	C311.223175,530.033264 309.429382,529.069580 309.618317,525.195312 
	C309.852966,520.383057 309.774323,515.546753 309.623138,510.727417 
	C309.520447,507.454407 310.805359,506.522247 314.068481,506.541260 
	C342.179108,506.705017 370.290771,506.690887 398.887085,506.728851 
z"/>
</svg>