<svg version="1.1" id="Layer_1" xmlns="http://www.w3.org/2000/svg" xmlns:xlink="http://www.w3.org/1999/xlink" x="0px" y="0px"
	 width="100%" viewBox="0 0 1024 1024" enable-background="new 0 0 1024 1024" xml:space="preserve">
<path fill="#191919" opacity="1.000000" stroke="none" 
	d="
M906.000000,1025.000000 
	C604.000000,1025.000000 302.500000,1025.000000 1.000000,1025.000000 
	C1.000000,683.666687 1.000000,342.333344 1.000000,1.000000 
	C342.333344,1.000000 683.666687,1.000000 1025.000000,1.000000 
	C1025.000000,342.333344 1025.000000,683.666687 1025.000000,1025.000000 
	C985.500000,1025.000000 946.000000,1025.000000 906.000000,1025.000000 
M385.241608,561.107727 
	C385.192413,557.407288 385.143250,553.706787 385.318024,549.102295 
	C385.318024,547.832886 385.318024,546.563538 385.318024,545.054443 
	C372.869049,545.054443 360.841003,545.054443 348.447235,544.215027 
	C348.299927,540.809265 348.152618,537.403503 348.228363,533.425049 
	C348.486298,532.883118 348.744232,532.341125 349.905762,531.903381 
	C352.934692,531.852844 355.963623,531.802368 359.912811,531.926880 
	C364.944580,531.866943 369.976349,531.807007 375.921295,531.927368 
	C380.836578,531.927368 385.751831,531.927368 390.826202,531.927368 
	C390.826202,526.559448 391.210083,522.028198 390.720856,517.593201 
	C390.206787,512.933350 392.126678,511.280487 396.389282,511.291107 
	C403.350616,511.308472 410.312012,511.295776 417.303375,511.295776 
	C417.303375,509.959412 417.403046,509.450256 417.283661,508.999054 
	C416.986633,507.876160 416.628876,506.765289 416.226959,505.674835 
	C412.116150,494.521210 405.493805,485.020050 396.763397,477.057983 
	C394.047363,474.580994 393.064575,472.197144 393.227539,468.459564 
	C393.575104,460.490021 393.222473,452.485413 393.002411,444.499451 
	C392.957458,442.867554 392.235504,441.254364 391.480835,438.268250 
	C383.703247,445.523987 376.891693,451.878540 370.024109,458.285339 
	C367.760437,453.429993 365.717926,449.049042 363.675446,444.668091 
	C363.159454,444.687683 362.643494,444.707275 362.127533,444.726898 
	C359.493774,449.655182 356.572937,454.457245 354.331024,459.557800 
	C352.926697,462.752808 351.257782,464.565704 347.686493,465.243713 
	C337.410522,467.194519 329.897797,472.849884 325.129944,482.386719 
	C324.066101,484.514618 321.242126,486.542480 318.872620,487.097687 
	C310.302460,489.105743 301.599335,490.578308 292.909454,492.032166 
	C287.267670,492.976074 285.401825,495.469421 286.941925,500.991119 
	C287.423828,502.718750 288.285126,504.340546 288.989166,506.744049 
	C291.354675,510.488678 293.720154,514.233276 296.300873,518.615479 
	C299.857727,520.532654 303.414612,522.449829 307.789307,524.750366 
	C313.043671,524.331970 318.298065,523.913574 324.352112,523.431458 
	C324.352112,535.224854 324.352112,547.103271 324.161072,559.771240 
	C324.234039,560.846497 324.306976,561.921814 324.187775,563.916748 
	C324.187775,572.657043 324.187775,581.397339 324.187775,590.438477 
	C332.269379,590.438477 339.977539,590.438477 347.944092,590.438477 
	C347.944092,584.532898 347.944092,578.776367 348.127930,572.349548 
	C348.067841,571.894226 348.007782,571.438904 348.144897,570.177368 
	C348.144897,567.963135 348.144897,565.748962 348.144897,563.386719 
	C351.179504,563.213928 353.580383,563.077271 356.889099,563.129089 
	C360.597443,563.062195 364.305756,562.995300 368.790070,563.137451 
	C374.190674,562.758240 379.591278,562.379028 385.241608,561.107727 
M500.114868,584.147034 
	C500.058960,581.758789 500.003082,579.370483 500.145142,576.237000 
	C500.072510,572.825867 499.999878,569.414795 500.127502,565.161865 
	C500.048370,563.439392 499.969238,561.716858 500.069519,559.086548 
	C500.069519,550.994629 500.069519,542.902649 500.069519,534.311035 
	C507.264038,534.311035 513.855164,534.311035 520.502625,534.311035 
	C520.502625,528.551514 520.502625,523.304932 520.502625,517.740845 
	C500.194885,517.740845 480.162048,517.740845 460.150574,517.740845 
	C460.150574,523.448120 460.150574,528.826599 460.150574,534.431458 
	C466.840363,534.431458 473.148590,534.431458 480.212585,534.431458 
	C480.212585,545.438660 480.212585,556.213989 480.019623,567.902832 
	C480.092621,572.271606 480.165649,576.640442 480.062469,581.867249 
	C480.137482,583.438965 480.212494,585.010681 480.294586,586.730835 
	C486.588684,586.730835 492.479309,586.774353 498.366669,586.656616 
	C498.895416,586.646057 499.403320,585.592834 500.114868,584.147034 
M610.799377,586.761292 
	C612.239136,586.761292 613.678894,586.761292 615.288940,586.761292 
	C615.288940,582.505859 615.288940,578.746338 615.594360,574.104858 
	C615.591858,569.741638 615.589417,565.378357 616.218445,560.578003 
	C617.475464,560.395142 618.732422,560.212341 620.750977,560.247437 
	C624.501038,560.166016 628.251099,560.084595 632.853882,560.225525 
	C635.191284,560.164673 637.528748,560.103821 640.463257,560.788208 
	C640.657104,565.187561 640.850952,569.586914 640.849792,574.892456 
	C640.996277,578.583984 641.142761,582.275452 641.815186,586.564941 
	C647.890137,586.564941 653.965027,586.564941 659.961914,586.564941 
	C659.961914,563.238770 659.961914,540.529236 659.961914,517.993164 
	C653.300354,517.993164 647.017395,517.993164 640.277710,517.993164 
	C640.277710,526.507507 640.277710,534.722046 640.277710,542.920776 
	C631.915588,542.920776 624.024292,542.920776 615.696411,542.920776 
	C615.696411,534.357422 615.696411,526.124573 615.696411,517.796265 
	C608.858154,517.796265 602.469421,517.796265 596.036133,517.796265 
	C596.036133,532.744385 596.036133,547.366028 595.827087,562.890808 
	C595.898071,566.597961 595.968994,570.305115 595.845093,574.781433 
	C595.845093,578.691040 595.845093,582.600647 595.845093,586.543579 
	C600.853943,586.543579 605.419983,586.543579 610.799377,586.761292 
M542.573547,558.264587 
	C542.325256,556.293518 541.884216,554.324829 541.860168,552.351074 
	C541.717773,540.648315 549.246338,532.793274 560.061035,533.256042 
	C566.651062,533.538086 571.762451,536.512634 575.343811,542.345581 
	C580.167297,538.106018 584.589844,534.218872 589.161133,530.200928 
	C581.991699,521.778931 573.391968,517.358887 563.246216,516.520264 
	C549.576599,515.390320 537.254761,518.874023 528.755981,530.369080 
	C520.670044,541.305908 519.680542,553.469971 524.952087,566.798950 
	C531.384827,581.414001 543.239685,587.902405 558.556030,588.511230 
	C570.986145,589.005249 580.908691,583.697998 588.886292,573.886353 
	C584.082397,569.956543 579.633789,566.317322 575.206116,562.695190 
	C563.342957,576.226379 547.846863,572.489746 542.573547,558.264587 
M719.582031,566.737427 
	C726.718750,559.823853 733.855408,552.910217 741.384766,545.440552 
	C755.352478,534.751465 752.188965,509.323090 735.621948,501.246368 
	C723.016357,495.100922 709.794983,495.307434 696.707825,499.634033 
	C688.534790,502.336090 681.918274,507.437805 676.773132,514.743042 
	C683.345520,519.262939 689.481018,523.482361 695.502014,527.623108 
	C698.342407,525.363220 700.879822,522.920776 703.807556,521.108887 
	C708.900269,517.957153 716.967041,518.131653 720.376160,521.069580 
	C723.714172,523.946228 723.836060,528.941040 720.156982,536.207825 
	C713.107544,542.813965 706.058167,549.420166 698.365234,556.220886 
	C693.328430,560.826294 688.252625,565.390320 683.287048,570.071289 
	C682.259766,571.039673 681.007935,572.411438 680.946533,573.651184 
	C680.686462,578.902649 680.836243,584.174500 680.836243,589.624023 
	C693.164124,589.624023 704.795776,589.624023 716.427490,589.624023 
	C728.196472,589.624023 739.965393,589.624023 751.843140,589.624023 
	C751.843140,582.391479 751.843140,575.659668 751.843140,568.675415 
	C741.904297,568.675415 732.259338,568.735474 722.617065,568.600769 
	C721.389526,568.583618 720.176208,567.549011 719.582031,566.737427 
M393.792206,557.776794 
	C394.274170,560.089722 394.756165,562.402588 395.270508,565.554321 
	C397.758545,569.930359 400.246613,574.306335 403.012390,579.246521 
	C408.111450,581.833191 413.048096,586.159668 418.342529,586.653931 
	C430.342773,587.774170 442.519257,587.006531 454.606201,587.006531 
	C454.606201,581.439270 454.606201,576.191284 454.606201,570.505493 
	C446.369385,570.505493 438.400513,570.773315 430.462250,570.396362 
	C426.279083,570.197815 422.149384,568.873657 417.397888,567.656677 
	C416.172302,565.486755 414.946716,563.316833 413.327118,560.449280 
	C426.417725,560.449280 438.501251,560.449280 450.886841,560.449280 
	C450.886841,554.898743 450.886841,549.717346 450.886841,544.307739 
	C438.864227,544.307739 427.089661,544.307739 415.290314,544.307739 
	C416.112396,537.569519 419.681702,534.334534 426.628571,534.245361 
	C435.924591,534.125916 445.223328,534.215759 454.585510,534.215759 
	C454.585510,528.459778 454.585510,523.215576 454.585510,517.401978 
	C443.857208,517.401978 433.400696,517.549500 422.950287,517.359375 
	C413.013458,517.178650 405.693512,521.732117 400.220490,529.527466 
	C394.433289,537.770325 392.628998,547.064453 393.792206,557.776794 
M958.028564,961.586365 
	C953.744812,964.106750 949.461121,966.627197 944.490295,969.551819 
	C957.306641,973.083801 964.781128,981.343201 968.489746,992.798096 
	C971.930664,987.569885 974.435913,982.136536 978.411682,978.181396 
	C982.354492,974.259094 987.778748,971.826111 993.099670,968.386658 
	C980.801208,964.994019 973.238770,956.656860 969.572144,945.521667 
	C965.745056,950.942383 962.157104,956.024475 958.028564,961.586365 
M294.171631,534.051575 
	C287.534576,534.602417 280.904266,535.262451 274.258545,535.672974 
	C267.750366,536.075134 261.226471,536.223267 254.709457,536.482910 
	C254.738342,536.938965 254.767227,537.395020 254.796127,537.851074 
	C274.821045,538.933899 294.845947,540.016663 314.885620,541.100281 
	C314.885620,537.917847 314.885620,535.369019 314.885620,532.625732 
	C308.044403,533.098083 301.571472,533.544983 294.171631,534.051575 
M280.802124,552.751099 
	C276.340668,552.958984 271.879181,553.166870 267.417725,553.374756 
	C267.458405,553.894531 267.499054,554.414246 267.539734,554.934021 
	C283.376831,556.005615 299.213928,557.077148 314.974731,558.143555 
	C314.974731,555.157654 314.974731,552.750854 314.974731,550.250061 
	C303.647430,551.084778 292.694702,551.891846 280.802124,552.751099 
M282.744293,573.141296 
	C293.568085,574.191711 304.391846,575.242065 315.246582,576.295471 
	C315.246582,573.482666 315.246582,571.392700 315.246582,568.858582 
	C303.363129,569.931519 291.733093,570.981628 280.103088,572.031738 
	C280.110565,572.236816 280.118011,572.441895 280.125458,572.646973 
	C280.764160,572.784363 281.402863,572.921753 282.744293,573.141296 
z"/>
<path fill="#F6F6F6" opacity="1.000000" stroke="none" 
	d="
M288.972748,506.010742 
	C288.285126,504.340546 287.423828,502.718750 286.941925,500.991119 
	C285.401825,495.469421 287.267670,492.976074 292.909454,492.032166 
	C301.599335,490.578308 310.302460,489.105743 318.872620,487.097687 
	C321.242126,486.542480 324.066101,484.514618 325.129944,482.386719 
	C329.897797,472.849884 337.410522,467.194519 347.686493,465.243713 
	C351.257782,464.565704 352.926697,462.752808 354.331024,459.557800 
	C356.572937,454.457245 359.493774,449.655182 362.127533,444.726898 
	C362.643494,444.707275 363.159454,444.687683 363.675446,444.668091 
	C365.717926,449.049042 367.760437,453.429993 370.024109,458.285339 
	C376.891693,451.878540 383.703247,445.523987 391.480835,438.268250 
	C392.235504,441.254364 392.957458,442.867554 393.002411,444.499451 
	C393.222473,452.485413 393.575104,460.490021 393.227539,468.459564 
	C393.064575,472.197144 394.047363,474.580994 396.763397,477.057983 
	C405.493805,485.020050 412.116150,494.521210 416.226959,505.674835 
	C416.628876,506.765289 416.986633,507.876160 417.283661,508.999054 
	C417.403046,509.450256 417.303375,509.959412 417.303375,511.295776 
	C410.312012,511.295776 403.350616,511.308472 396.389282,511.291107 
	C392.126678,511.280487 390.206787,512.933350 390.720856,517.593201 
	C391.210083,522.028198 390.826202,526.559448 390.826202,531.927368 
	C385.751831,531.927368 380.836578,531.927368 375.529694,531.490845 
	C375.608734,530.002686 376.063141,528.943420 376.552704,527.900635 
	C379.505249,521.611572 377.886169,518.971497 370.921692,519.016479 
	C356.966522,519.106628 359.220947,517.306335 358.992554,531.751831 
	C355.963623,531.802368 352.934692,531.852844 349.445129,531.491577 
	C348.835175,530.437988 348.894135,529.602173 348.504639,529.184082 
	C344.116882,524.474243 343.585846,519.969727 347.379791,514.240417 
	C348.679749,512.277344 347.596710,507.370483 345.854492,505.233734 
	C344.672241,503.783722 340.331512,504.306213 337.614716,504.905334 
	C335.527130,505.365631 333.785553,507.346039 331.861053,508.606079 
	C328.875519,510.560760 326.759216,514.804810 321.894714,511.865448 
	C320.280609,518.127502 315.022675,515.519653 311.393066,516.555786 
	C305.281311,518.300476 305.106628,518.093689 306.971466,524.367004 
	C303.414612,522.449829 299.857727,520.532654 296.566376,518.294373 
	C298.374603,517.404236 299.874664,516.621826 301.467468,516.303284 
	C308.138275,514.969299 309.482056,509.570312 310.655212,504.196198 
	C310.908295,503.036774 310.247742,501.166229 309.348145,500.354401 
	C305.177948,496.591125 300.307800,496.817993 295.956787,500.525970 
	C293.705627,502.444427 291.305542,504.188110 288.972748,506.010742 
M357.452759,482.985413 
	C356.604309,487.302551 354.875854,491.666138 355.100739,495.926636 
	C355.500824,503.506195 360.648407,507.791565 367.905304,507.980804 
	C376.993469,508.217804 382.264587,504.652130 383.700623,497.268066 
	C381.486298,499.156250 379.526825,501.455566 377.052155,502.821350 
	C369.123169,507.197357 359.206451,501.419373 357.974976,491.785492 
	C357.568451,488.605194 357.721313,485.353424 357.769958,482.891632 
	C358.098450,482.794250 358.426971,482.696869 358.755463,482.599457 
	C358.368408,482.477905 357.981354,482.356384 357.452759,482.985413 
M336.119568,480.338257 
	C335.288452,482.637268 334.055695,484.902985 333.860565,487.254761 
	C333.798615,488.001282 336.531891,489.706848 337.930634,489.648407 
	C339.408325,489.586639 341.336792,488.262207 342.158356,486.928680 
	C344.195557,483.622131 341.753387,480.638824 336.119568,480.338257 
M388.926483,513.278687 
	C389.399658,508.445465 385.139893,508.878143 382.248596,506.971771 
	C380.613098,510.482605 379.934082,513.817505 382.775146,516.154480 
	C383.620819,516.850098 386.709839,514.818359 388.926483,513.278687 
M384.536682,529.284363 
	C385.974030,528.924072 387.411377,528.563782 388.848724,528.203552 
	C388.479584,527.353516 388.110443,526.503418 387.741302,525.653381 
	C386.578888,526.645447 385.416504,527.637451 384.536682,529.284363 
M351.822205,502.594513 
	C352.387878,502.302856 352.953522,502.011169 353.519196,501.719513 
	C353.110413,501.305298 352.701630,500.891052 352.292847,500.476837 
	C351.993622,501.038086 351.694397,501.599335 351.822205,502.594513 
M324.514648,498.172363 
	C324.116821,497.607269 323.718994,497.042175 323.321167,496.477081 
	C323.033722,496.753845 322.746277,497.030609 322.458832,497.307373 
	C323.013916,497.721222 323.569000,498.135071 324.514648,498.172363 
z"/>
<path fill="#F2F2F1" opacity="1.000000" stroke="none" 
	d="
M402.734650,578.682373 
	C400.246613,574.306335 397.758545,569.930359 395.688049,565.239380 
	C398.274139,564.942200 400.601349,565.412537 402.527222,564.737610 
	C403.222046,564.494202 403.602417,561.225159 403.001953,559.815979 
	C401.266785,555.744263 397.967651,554.912720 393.968781,557.002380 
	C392.628998,547.064453 394.433289,537.770325 400.220490,529.527466 
	C405.693512,521.732117 413.013458,517.178650 422.950287,517.359375 
	C433.400696,517.549500 443.857208,517.401978 454.585510,517.401978 
	C454.585510,523.215576 454.585510,528.459778 454.585510,534.215759 
	C445.223328,534.215759 435.924591,534.125916 426.628571,534.245361 
	C419.681702,534.334534 416.112396,537.569519 415.290314,544.307739 
	C427.089661,544.307739 438.864227,544.307739 450.886841,544.307739 
	C450.886841,549.717346 450.886841,554.898743 450.886841,560.449280 
	C438.501251,560.449280 426.417725,560.449280 413.327118,560.449280 
	C414.946716,563.316833 416.172302,565.486755 417.582581,568.224121 
	C416.943329,569.188232 416.096039,569.969543 415.299225,569.921082 
	C408.746338,569.522522 404.429840,572.184875 402.734650,578.682373 
z"/>
<path fill="#F2F2F1" opacity="1.000000" stroke="none" 
	d="
M596.036133,561.987671 
	C596.036133,547.366028 596.036133,532.744385 596.036133,517.796265 
	C602.469421,517.796265 608.858154,517.796265 615.696411,517.796265 
	C615.696411,526.124573 615.696411,534.357422 615.696411,542.920776 
	C624.024292,542.920776 631.915588,542.920776 640.277710,542.920776 
	C640.277710,534.722046 640.277710,526.507507 640.277710,517.993164 
	C647.017395,517.993164 653.300354,517.993164 659.961914,517.993164 
	C659.961914,540.529236 659.961914,563.238770 659.961914,586.564941 
	C653.965027,586.564941 647.890137,586.564941 641.907104,586.083557 
	C645.956726,585.400269 649.921387,584.952637 653.870117,585.065552 
	C657.828735,585.178772 659.172729,583.548218 659.052002,579.730469 
	C658.858337,573.604736 658.799927,567.459839 659.065186,561.339478 
	C659.257568,556.899841 657.942993,555.537842 653.306763,556.224243 
	C649.653198,556.765076 645.372192,556.723145 642.090576,555.289917 
	C636.755920,552.960022 633.357239,554.033569 632.001160,560.003235 
	C628.251099,560.084595 624.501038,560.166016 620.363037,559.763794 
	C617.988342,554.119690 615.406311,553.201721 610.727844,555.492188 
	C605.922424,557.844849 600.940735,559.837524 596.036133,561.987671 
z"/>
<path fill="#F6F6F6" opacity="1.000000" stroke="none" 
	d="
M720.738342,535.912842 
	C723.836060,528.941040 723.714172,523.946228 720.376160,521.069580 
	C716.967041,518.131653 708.900269,517.957153 703.807556,521.108887 
	C700.879822,522.920776 698.342407,525.363220 695.502014,527.623108 
	C689.481018,523.482361 683.345520,519.262939 676.773132,514.743042 
	C681.918274,507.437805 688.534790,502.336090 696.707825,499.634033 
	C709.794983,495.307434 723.016357,495.100922 735.621948,501.246368 
	C752.188965,509.323090 755.352478,534.751465 740.894287,545.559204 
	C734.818665,540.469299 728.475281,536.787903 720.738342,535.912842 
z"/>
<path fill="#F2F2F1" opacity="1.000000" stroke="none" 
	d="
M499.927246,566.003662 
	C499.999878,569.414795 500.072510,572.825867 499.636993,576.613159 
	C491.373108,576.481262 491.225983,576.278015 492.585052,567.618652 
	C488.506165,566.581848 484.568665,563.926270 480.212585,566.989319 
	C480.212585,556.213989 480.212585,545.438660 480.212585,534.431458 
	C473.148590,534.431458 466.840363,534.431458 460.150574,534.431458 
	C460.150574,528.826599 460.150574,523.448120 460.150574,517.740845 
	C480.162048,517.740845 500.194885,517.740845 520.502625,517.740845 
	C520.502625,523.304932 520.502625,528.551514 520.502625,534.311035 
	C513.855164,534.311035 507.264038,534.311035 500.069519,534.311035 
	C500.069519,542.902649 500.069519,550.994629 499.630737,559.552917 
	C498.249084,560.929749 497.306183,561.840271 496.363281,562.750732 
	C497.551270,563.835022 498.739227,564.919373 499.927246,566.003662 
z"/>
<path fill="#E5E6E5" opacity="1.000000" stroke="none" 
	d="
M718.956299,566.985718 
	C720.176208,567.549011 721.389526,568.583618 722.617065,568.600769 
	C732.259338,568.735474 741.904297,568.675415 751.843140,568.675415 
	C751.843140,575.659668 751.843140,582.391479 751.843140,589.624023 
	C739.965393,589.624023 728.196472,589.624023 716.427490,589.624023 
	C704.795776,589.624023 693.164124,589.624023 680.836243,589.624023 
	C680.836243,584.174500 680.686462,578.902649 680.946533,573.651184 
	C681.007935,572.411438 682.259766,571.039673 683.287048,570.071289 
	C688.252625,565.390320 693.328430,560.826294 698.740234,556.476562 
	C700.703003,558.737793 701.892761,561.688110 703.958862,562.558777 
	C708.732239,564.570190 713.930420,565.573547 718.956299,566.985718 
z"/>
<path fill="#F2F2F1" opacity="1.000000" stroke="none" 
	d="
M307.380371,524.558716 
	C305.106628,518.093689 305.281311,518.300476 311.393066,516.555786 
	C315.022675,515.519653 320.280609,518.127502 321.894714,511.865448 
	C326.759216,514.804810 328.875519,510.560760 331.861053,508.606079 
	C333.785553,507.346039 335.527130,505.365631 337.614716,504.905334 
	C340.331512,504.306213 344.672241,503.783722 345.854492,505.233734 
	C347.596710,507.370483 348.679749,512.277344 347.379791,514.240417 
	C343.585846,519.969727 344.116882,524.474243 348.504639,529.184082 
	C348.894135,529.602173 348.835175,530.437988 348.993347,531.439453 
	C348.744232,532.341125 348.486298,532.883118 347.866516,533.973389 
	C346.984222,536.177124 346.719757,537.974670 345.894226,539.460510 
	C343.631622,543.532532 343.941315,544.262634 348.812988,545.054443 
	C360.841003,545.054443 372.869049,545.054443 385.318024,545.054443 
	C385.318024,546.563538 385.318024,547.832886 384.840485,549.506470 
	C381.290253,548.227417 377.803741,544.665833 374.783142,548.585388 
	C371.778809,552.483765 370.203308,557.483337 368.002563,562.232178 
	C368.003906,562.464294 368.014099,562.928406 368.014099,562.928406 
	C364.305756,562.995300 360.597443,563.062195 356.316650,562.835938 
	C355.542816,562.299866 355.296326,562.118103 355.003479,561.574341 
	C354.802856,552.601013 352.208862,550.106445 344.171478,551.076843 
	C338.392792,551.774414 332.712769,552.808289 328.252258,557.172729 
	C327.286682,558.117615 325.669312,558.396240 324.352112,558.981689 
	C324.352112,547.103271 324.352112,535.224854 324.352112,523.431458 
	C318.298065,523.913574 313.043671,524.331970 307.380371,524.558716 
z"/>
<path fill="#F2F2F1" opacity="1.000000" stroke="none" 
	d="
M524.771851,566.096252 
	C519.680542,553.469971 520.670044,541.305908 528.755981,530.369080 
	C537.254761,518.874023 549.576599,515.390320 563.246216,516.520264 
	C573.391968,517.358887 581.991699,521.778931 589.161133,530.200928 
	C584.589844,534.218872 580.167297,538.106018 575.343811,542.345581 
	C571.762451,536.512634 566.651062,533.538086 560.061035,533.256042 
	C549.246338,532.793274 541.717773,540.648315 541.860168,552.351074 
	C541.884216,554.324829 542.325256,556.293518 542.194946,558.682373 
	C540.348816,559.606812 537.748840,559.902283 537.608154,560.656433 
	C536.969238,564.082703 534.347717,563.935547 532.035950,564.479614 
	C529.621460,565.047913 527.193787,565.559692 524.771851,566.096252 
z"/>
<path fill="#E7E8E7" opacity="1.000000" stroke="none" 
	d="
M524.861938,566.447632 
	C527.193787,565.559692 529.621460,565.047913 532.035950,564.479614 
	C534.347717,563.935547 536.969238,564.082703 537.608154,560.656433 
	C537.748840,559.902283 540.348816,559.606812 542.259277,559.155273 
	C547.846863,572.489746 563.342957,576.226379 575.206116,562.695190 
	C579.633789,566.317322 584.082397,569.956543 588.886292,573.886353 
	C580.908691,583.697998 570.986145,589.005249 558.556030,588.511230 
	C543.239685,587.902405 531.384827,581.414001 524.861938,566.447632 
z"/>
<path fill="#E7E8E7" opacity="1.000000" stroke="none" 
	d="
M402.873535,578.964478 
	C404.429840,572.184875 408.746338,569.522522 415.299225,569.921082 
	C416.096039,569.969543 416.943329,569.188232 417.881409,568.424622 
	C422.149384,568.873657 426.279083,570.197815 430.462250,570.396362 
	C438.400513,570.773315 446.369385,570.505493 454.606201,570.505493 
	C454.606201,576.191284 454.606201,581.439270 454.606201,587.006531 
	C442.519257,587.006531 430.342773,587.774170 418.342529,586.653931 
	C413.048096,586.159668 408.111450,581.833191 402.873535,578.964478 
z"/>
<path fill="#898989" opacity="1.000000" stroke="none" 
	d="
M958.298828,961.346436 
	C962.157104,956.024475 965.745056,950.942383 969.572144,945.521667 
	C973.238770,956.656860 980.801208,964.994019 993.099670,968.386658 
	C987.778748,971.826111 982.354492,974.259094 978.411682,978.181396 
	C974.435913,982.136536 971.930664,987.569885 968.489746,992.798096 
	C964.781128,981.343201 957.306641,973.083801 944.490295,969.551819 
	C949.461121,966.627197 953.744812,964.106750 958.298828,961.346436 
z"/>
<path fill="#F2F2F1" opacity="1.000000" stroke="none" 
	d="
M719.269165,566.861572 
	C713.930420,565.573547 708.732239,564.570190 703.958862,562.558777 
	C701.892761,561.688110 700.703003,558.737793 699.062012,556.379272 
	C706.058167,549.420166 713.107544,542.813965 720.447632,536.060303 
	C728.475281,536.787903 734.818665,540.469299 740.697937,545.837219 
	C733.855408,552.910217 726.718750,559.823853 719.269165,566.861572 
z"/>
<path fill="#E5E6E5" opacity="1.000000" stroke="none" 
	d="
M347.944092,573.019836 
	C347.944092,578.776367 347.944092,584.532898 347.944092,590.438477 
	C339.977539,590.438477 332.269379,590.438477 324.187775,590.438477 
	C324.187775,581.397339 324.187775,572.657043 324.638062,563.438232 
	C329.549896,560.542236 331.964355,564.743225 335.173065,566.199829 
	C337.492767,567.252869 338.705383,569.008667 336.950653,571.817444 
	C336.443878,572.628601 336.848206,574.848694 337.607391,575.454163 
	C339.905792,577.287048 346.005737,575.651489 347.944092,573.019836 
z"/>
<path fill="#E9E9E9" opacity="1.000000" stroke="none" 
	d="
M632.427490,560.114380 
	C633.357239,554.033569 636.755920,552.960022 642.090576,555.289917 
	C645.372192,556.723145 649.653198,556.765076 653.306763,556.224243 
	C657.942993,555.537842 659.257568,556.899841 659.065186,561.339478 
	C658.799927,567.459839 658.858337,573.604736 659.052002,579.730469 
	C659.172729,583.548218 657.828735,585.178772 653.870117,585.065552 
	C649.921387,584.952637 645.956726,585.400269 641.644165,585.784546 
	C641.142761,582.275452 640.996277,578.583984 641.291138,574.391479 
	C643.397827,571.495789 646.536987,568.985718 646.360901,566.734985 
	C646.133545,563.828064 644.448853,559.900269 639.866150,560.042969 
	C637.528748,560.103821 635.191284,560.164673 632.427490,560.114380 
z"/>
<path fill="#E9E9E9" opacity="1.000000" stroke="none" 
	d="
M595.931641,562.439209 
	C600.940735,559.837524 605.922424,557.844849 610.727844,555.492188 
	C615.406311,553.201721 617.988342,554.119690 619.982300,559.654785 
	C618.732422,560.212341 617.475464,560.395142 615.587280,560.941650 
	C614.455383,563.126404 614.508118,565.487732 613.353577,566.670776 
	C609.374634,570.748108 612.118896,572.818726 615.288940,574.986877 
	C615.288940,578.746338 615.288940,582.505859 615.288940,586.761292 
	C613.678894,586.761292 612.239136,586.761292 610.225830,586.325562 
	C606.675049,585.404175 603.697815,584.918396 600.552124,584.405151 
	C601.103943,580.019287 601.572388,575.651733 596.039917,574.012268 
	C595.968994,570.305115 595.898071,566.597961 595.931641,562.439209 
z"/>
<path fill="#E9E9E9" opacity="1.000000" stroke="none" 
	d="
M348.036011,572.684692 
	C346.005737,575.651489 339.905792,577.287048 337.607391,575.454163 
	C336.848206,574.848694 336.443878,572.628601 336.950653,571.817444 
	C338.705383,569.008667 337.492767,567.252869 335.173065,566.199829 
	C331.964355,564.743225 329.549896,560.542236 324.734131,562.978394 
	C324.306976,561.921814 324.234039,560.846497 324.256592,559.376465 
	C325.669312,558.396240 327.286682,558.117615 328.252258,557.172729 
	C332.712769,552.808289 338.392792,551.774414 344.171478,551.076843 
	C352.208862,550.106445 354.802856,552.601013 354.562744,561.575439 
	C352.816193,562.001892 351.508972,561.991577 350.202118,562.008606 
	C346.677124,562.054504 343.328522,563.158813 342.642731,566.756653 
	C342.445618,567.791016 346.073578,569.554443 347.947723,570.983582 
	C348.007782,571.438904 348.067841,571.894226 348.036011,572.684692 
z"/>
<path fill="#E9E9E9" opacity="1.000000" stroke="none" 
	d="
M294.635071,534.021729 
	C301.571472,533.544983 308.044403,533.098083 314.885620,532.625732 
	C314.885620,535.369019 314.885620,537.917847 314.885620,541.100281 
	C294.845947,540.016663 274.821045,538.933899 254.796127,537.851074 
	C254.767227,537.395020 254.738342,536.938965 254.709457,536.482910 
	C261.226471,536.223267 267.750366,536.075134 274.258545,535.672974 
	C280.904266,535.262451 287.534576,534.602417 294.635071,534.021729 
z"/>
<path fill="#F2F2F1" opacity="1.000000" stroke="none" 
	d="
M288.980957,506.377380 
	C291.305542,504.188110 293.705627,502.444427 295.956787,500.525970 
	C300.307800,496.817993 305.177948,496.591125 309.348145,500.354401 
	C310.247742,501.166229 310.908295,503.036774 310.655212,504.196198 
	C309.482056,509.570312 308.138275,514.969299 301.467468,516.303284 
	C299.874664,516.621826 298.374603,517.404236 296.458740,517.975586 
	C293.720154,514.233276 291.354675,510.488678 288.980957,506.377380 
z"/>
<path fill="#E5E6E5" opacity="1.000000" stroke="none" 
	d="
M281.272064,552.725037 
	C292.694702,551.891846 303.647430,551.084778 314.974731,550.250061 
	C314.974731,552.750854 314.974731,555.157654 314.974731,558.143555 
	C299.213928,557.077148 283.376831,556.005615 267.539734,554.934021 
	C267.499054,554.414246 267.458405,553.894531 267.417725,553.374756 
	C271.879181,553.166870 276.340668,552.958984 281.272064,552.725037 
z"/>
<path fill="#E9E9E9" opacity="1.000000" stroke="none" 
	d="
M480.116089,567.446045 
	C484.568665,563.926270 488.506165,566.581848 492.585052,567.618652 
	C491.225983,576.278015 491.373108,576.481262 499.538025,576.985779 
	C500.003082,579.370483 500.058960,581.758789 499.587921,584.581787 
	C496.805084,584.816650 493.256927,585.439453 492.515900,584.275391 
	C489.219604,579.097290 484.558472,581.078369 480.238678,581.009216 
	C480.165649,576.640442 480.092621,572.271606 480.116089,567.446045 
z"/>
<path fill="#F2F2F1" opacity="1.000000" stroke="none" 
	d="
M359.452698,531.839355 
	C359.220947,517.306335 356.966522,519.106628 370.921692,519.016479 
	C377.886169,518.971497 379.505249,521.611572 376.552704,527.900635 
	C376.063141,528.943420 375.608734,530.002686 375.073120,531.400757 
	C369.976349,531.807007 364.944580,531.866943 359.452698,531.839355 
z"/>
<path fill="#E9E9E9" opacity="1.000000" stroke="none" 
	d="
M368.001221,562.000000 
	C370.203308,557.483337 371.778809,552.483765 374.783142,548.585388 
	C377.803741,544.665833 381.290253,548.227417 384.728516,549.958496 
	C385.143250,553.706787 385.192413,557.407288 384.649658,561.552734 
	C378.705566,561.998474 373.353394,561.999207 368.001221,562.000000 
z"/>
<path fill="#E5E6E5" opacity="1.000000" stroke="none" 
	d="
M282.392944,573.100220 
	C281.402863,572.921753 280.764160,572.784363 280.125458,572.646973 
	C280.118011,572.441895 280.110565,572.236816 280.103088,572.031738 
	C291.733093,570.981628 303.363129,569.931519 315.246582,568.858582 
	C315.246582,571.392700 315.246582,573.482666 315.246582,576.295471 
	C304.391846,575.242065 293.568085,574.191711 282.392944,573.100220 
z"/>
<path fill="#F2F2F1" opacity="1.000000" stroke="none" 
	d="
M480.150574,581.438232 
	C484.558472,581.078369 489.219604,579.097290 492.515900,584.275391 
	C493.256927,585.439453 496.805084,584.816650 499.490967,585.020142 
	C499.403320,585.592834 498.895416,586.646057 498.366669,586.656616 
	C492.479309,586.774353 486.588684,586.730835 480.294586,586.730835 
	C480.212494,585.010681 480.137482,583.438965 480.150574,581.438232 
z"/>
<path fill="#F2F2F1" opacity="1.000000" stroke="none" 
	d="
M595.942505,574.396851 
	C601.572388,575.651733 601.103943,580.019287 600.552124,584.405151 
	C603.697815,584.918396 606.675049,585.404175 609.819092,586.216736 
	C605.419983,586.543579 600.853943,586.543579 595.845093,586.543579 
	C595.845093,582.600647 595.845093,578.691040 595.942505,574.396851 
z"/>
<path fill="#E7E8E7" opacity="1.000000" stroke="none" 
	d="
M393.880493,557.389587 
	C397.967651,554.912720 401.266785,555.744263 403.001953,559.815979 
	C403.602417,561.225159 403.222046,564.494202 402.527222,564.737610 
	C400.601349,565.412537 398.274139,564.942200 395.671844,564.820007 
	C394.756165,562.402588 394.274170,560.089722 393.880493,557.389587 
z"/>
<path fill="#F2F2F1" opacity="1.000000" stroke="none" 
	d="
M640.164673,560.415588 
	C644.448853,559.900269 646.133545,563.828064 646.360901,566.734985 
	C646.536987,568.985718 643.397827,571.495789 641.388672,573.938416 
	C640.850952,569.586914 640.657104,565.187561 640.164673,560.415588 
z"/>
<path fill="#E5E6E5" opacity="1.000000" stroke="none" 
	d="
M348.046326,570.580444 
	C346.073578,569.554443 342.445618,567.791016 342.642731,566.756653 
	C343.328522,563.158813 346.677124,562.054504 350.202118,562.008606 
	C351.508972,561.991577 352.816193,562.001892 354.563965,561.998657 
	C355.296326,562.118103 355.542816,562.299866 355.862762,562.741699 
	C353.580383,563.077271 351.179504,563.213928 348.144897,563.386719 
	C348.144897,565.748962 348.144897,567.963135 348.046326,570.580444 
z"/>
<path fill="#F2F2F1" opacity="1.000000" stroke="none" 
	d="
M615.441650,574.545898 
	C612.118896,572.818726 609.374634,570.748108 613.353577,566.670776 
	C614.508118,565.487732 614.455383,563.126404 615.271484,561.160156 
	C615.589417,565.378357 615.591858,569.741638 615.441650,574.545898 
z"/>
<path fill="#F6F6F6" opacity="1.000000" stroke="none" 
	d="
M348.630127,544.634766 
	C343.941315,544.262634 343.631622,543.532532 345.894226,539.460510 
	C346.719757,537.974670 346.984222,536.177124 347.755005,534.259766 
	C348.152618,537.403503 348.299927,540.809265 348.630127,544.634766 
z"/>
<path fill="#E5E6E5" opacity="1.000000" stroke="none" 
	d="
M368.002563,562.232178 
	C373.353394,561.999207 378.705566,561.998474 384.524811,561.998779 
	C379.591278,562.379028 374.190674,562.758240 368.402100,563.032959 
	C368.014099,562.928406 368.003906,562.464294 368.002563,562.232178 
z"/>
<path fill="#E9E9E9" opacity="1.000000" stroke="none" 
	d="
M500.027344,565.582764 
	C498.739227,564.919373 497.551270,563.835022 496.363281,562.750732 
	C497.306183,561.840271 498.249084,560.929749 499.541046,560.006836 
	C499.969238,561.716858 500.048370,563.439392 500.027344,565.582764 
z"/>
<path fill="#191919" opacity="1.000000" stroke="none" 
	d="
M357.618408,482.134338 
	C357.721313,485.353424 357.568451,488.605194 357.974976,491.785492 
	C359.206451,501.419373 369.123169,507.197357 377.052155,502.821350 
	C379.526825,501.455566 381.486298,499.156250 383.700623,497.268066 
	C382.264587,504.652130 376.993469,508.217804 367.905304,507.980804 
	C360.648407,507.791565 355.500824,503.506195 355.100739,495.926636 
	C354.875854,491.666138 356.604309,487.302551 357.561523,482.592651 
	C357.670288,482.199921 357.618408,482.134338 357.618408,482.134338 
z"/>
<path fill="#191919" opacity="1.000000" stroke="none" 
	d="
M336.488159,480.211792 
	C341.753387,480.638824 344.195557,483.622131 342.158356,486.928680 
	C341.336792,488.262207 339.408325,489.586639 337.930634,489.648407 
	C336.531891,489.706848 333.798615,488.001282 333.860565,487.254761 
	C334.055695,484.902985 335.288452,482.637268 336.488159,480.211792 
z"/>
<path fill="#F2F2F1" opacity="1.000000" stroke="none" 
	d="
M388.848724,513.657471 
	C386.709839,514.818359 383.620819,516.850098 382.775146,516.154480 
	C379.934082,513.817505 380.613098,510.482605 382.248596,506.971771 
	C385.139893,508.878143 389.399658,508.445465 388.848724,513.657471 
z"/>
<path fill="#F2F2F1" opacity="1.000000" stroke="none" 
	d="
M384.395386,528.956909 
	C385.416504,527.637451 386.578888,526.645447 387.741272,525.653381 
	C388.110443,526.503418 388.479584,527.353516 388.848755,528.203491 
	C387.411377,528.563782 385.974030,528.924072 384.395386,528.956909 
z"/>
<path fill="#F2F2F1" opacity="1.000000" stroke="none" 
	d="
M351.608704,502.377563 
	C351.694397,501.599335 351.993622,501.038086 352.292847,500.476837 
	C352.701630,500.891052 353.110413,501.305298 353.519196,501.719513 
	C352.953522,502.011169 352.387878,502.302856 351.608704,502.377563 
z"/>
<path fill="#F2F2F1" opacity="1.000000" stroke="none" 
	d="
M324.319366,498.360626 
	C323.569000,498.135071 323.013916,497.721222 322.458832,497.307373 
	C322.746277,497.030609 323.033722,496.753845 323.321167,496.477081 
	C323.718994,497.042175 324.116821,497.607269 324.319366,498.360626 
z"/>
<path fill="#191919" opacity="1.000000" stroke="none" 
	d="
M357.632294,482.217377 
	C357.981354,482.356384 358.368408,482.477905 358.755463,482.599487 
	C358.426971,482.696869 358.098450,482.794250 357.694183,482.513000 
	C357.618408,482.134338 357.670288,482.199921 357.632294,482.217377 
z"/>
</svg>